<?xml version="1.0" encoding="UTF-8"?>
<svg width="1000px" height="1000px" viewBox="0 0 1000 1000" version="1.1" xmlns="http://www.w3.org/2000/svg" xmlns:xlink="http://www.w3.org/1999/xlink">
    <!-- Generator: Sketch 55.1 (78136) - https://sketchapp.com -->
    <title>编组 63</title>
    <desc>Created with Sketch.</desc>
    <g id="1000个上传" stroke="none" stroke-width="1" fill="none" fill-rule="evenodd">
        <g id="17" transform="translate(-284.000000, -1380.000000)">
            <g id="编组-63" transform="translate(284.000000, 1380.000000)">
                <rect id="矩形复制-9备份-43" x="0" y="0" width="1000" height="1000"></rect>
                <g id="49" transform="translate(83.000000, 171.000000)" fill-rule="nonzero">
                    <g id="编组">
                        <path d="M154.6375,101.965517 C154.6375,147.151724 156.375,192.337931 156.375,237.524138 C156.375,253.165517 156.375,270.544828 166.8,282.710345 C177.225,296.613793 194.6,300.089655 210.2375,303.565517 C227.6125,307.041379 246.725,308.77931 264.1,308.77931 C271.05,308.77931 279.7375,308.77931 286.6875,305.303448 C297.1125,300.089655 304.0625,291.4 307.5375,279.234483 C311.0125,268.806897 311.0125,256.641379 312.75,246.213793 C312.75,230.572414 314.4875,214.931034 312.75,199.289655 C311.0125,183.648276 305.8,168.006897 295.375,157.57931 C284.95,145.413793 269.3125,136.724138 253.675,131.510345 C238.0375,126.296552 220.6625,124.558621 205.025,122.82069" id="路径" fill="#F3705A"></path>
                        <path d="M144.2125,284.448276 L165.0625,251.427586 C165.0625,251.427586 175.4875,242.737931 177.225,232.310345 C178.9625,221.882759 177.225,211.455172 177.225,211.455172 C177.225,211.455172 163.325,169.744828 166.8,108.917241 L210.2375,41.137931 L269.3125,30.7103448 L319.7,112.393103 C319.7,112.393103 321.4375,188.862069 283.2125,230.572414 C283.2125,230.572414 274.525,256.641379 276.2625,261.855172 L295.375,289.662069 L305.8,352.227586 L251.9375,378.296552 C253.675,380.034483 165.0625,340.062069 144.2125,284.448276 Z" id="路径" fill="#FFD9CC"></path>
                        <path d="M154.6375,280.972414 L163.325,256.641379 L166.8,251.427586 C166.8,251.427586 177.225,242.737931 178.9625,232.310345 C180.7,221.882759 178.9625,211.455172 178.9625,211.455172 C239.775,293.137931 284.95,230.572414 284.95,230.572414 C229.35,317.468966 154.6375,280.972414 154.6375,280.972414 Z" id="路径" fill="#FBC5B3"></path>
                        <path d="M199.8125,489.524138 L147.6875,282.710345 L173.75,279.234483 C192.8625,326.158621 276.2625,362.655172 286.6875,345.275862 C298.85,327.896552 295.375,291.4 295.375,291.4 C312.75,303.565517 324.9125,407.841379 331.8625,489.524138 L199.8125,489.524138 Z" id="路径" fill="#E8EAE9"></path>
                        <g transform="translate(0.000000, 254.689655)" fill="#4ABAA5" id="路径">
                            <path d="M0,234.834483 C1.7375,191.386207 15.6375,94.062069 19.1125,74.9448276 C22.5875,54.0896552 39.9625,50.6137931 39.9625,50.6137931 C39.9625,50.6137931 85.1375,29.7586207 118.15,19.3310345 C128.575,15.8551724 158.1125,1.95172414 165.0625,0.213793103 C165.0625,0.213793103 191.125,69.7310345 213.7125,113.17931 C232.825,149.675862 246.725,196.6 257.15,238.310345 L0,238.310345 L0,234.834483 Z"></path>
                            <path d="M323.175,234.834483 C331.8625,160.103448 295.375,40.1862069 276.2625,8.90344828 C276.2625,8.90344828 298.85,24.5448276 309.275,31.4965517 C319.7,38.4482759 382.25,67.9931034 382.25,67.9931034 C411.7875,81.8965517 403.1,149.675862 404.8375,172.268966 C404.8375,179.22069 406.575,205.289655 406.575,234.834483 L323.175,234.834483 Z"></path>
                        </g>
                        <path d="M238.0375,58.5172414 C238.0375,58.5172414 225.875,58.5172414 199.8125,82.8482759 C173.75,107.17931 165.0625,124.558621 163.325,136.724138 C161.5875,148.889655 175.4875,237.524138 175.4875,237.524138 C163.325,280.972414 151.1625,319.206897 97.3,357.441379 C97.3,357.441379 128.575,251.427586 137.2625,214.931034 C145.95,178.434483 126.8375,147.151724 145.95,84.5862069 C165.0625,22.0206897 206.7625,-2.31034483 251.9375,1.16551724 C297.1125,4.64137931 321.4375,46.3517241 326.65,72.4206897 C331.8625,98.4896552 328.3875,188.862069 323.175,209.717241 C317.9625,230.572414 302.325,326.158621 302.325,326.158621 L305.8,190.6 C305.8,190.6 316.225,162.793103 309.275,143.675862 C302.325,124.558621 307.5375,89.8 293.6375,75.8965517 C281.475,61.9931034 258.8875,53.3034483 238.0375,58.5172414 Z" id="路径" fill="#F3705A"></path>
                        <path d="M328.3875,192.337931 C328.3875,192.337931 319.7,275.758621 331.8625,324.42069 C344.025,373.082759 352.7125,383.510345 352.7125,383.510345 C352.7125,383.510345 304.0625,364.393103 295.375,312.255172 C286.6875,260.117241 295.375,242.737931 295.375,242.737931" id="路径" fill="#F3705A"></path>
                        <path d="M274.525,336.586207 C281.475,352.227586 293.6375,366.131034 300.5875,381.772414 C309.275,397.413793 312.75,416.531034 307.5375,432.172414 C323.175,420.006897 326.65,399.151724 323.175,380.034483 C319.7,360.917241 312.75,343.537931 307.5375,326.158621 C302.325,300.089655 302.325,272.282759 304.0625,246.213793 L283.2125,230.572414 C260.625,260.117241 258.8875,301.827586 274.525,336.586207 Z" id="路径" fill="#F3705A"></path>
                        <path d="M177.225,213.193103 C182.4375,234.048276 178.9625,268.806897 172.0125,287.924138 C166.8,303.565517 156.375,319.206897 151.1625,334.848276 C145.95,352.227586 145.95,369.606897 152.9,386.986207 C142.475,383.510345 137.2625,373.082759 135.525,362.655172 C133.7875,352.227586 137.2625,341.8 142.475,331.372414 C145.95,320.944828 152.9,312.255172 156.375,301.827586 C166.8,275.758621 166.8,246.213793 154.6375,221.882759" id="路径" fill="#F3705A"></path>
                    </g>
                    <g id="编组" transform="translate(551.000000, 2.000000)">
                        <path d="M213.588235,221.62069 C213.588235,221.62069 211.852941,223.358621 211.852941,223.358621 C211.852941,223.358621 213.588235,244.213793 213.588235,244.213793 C213.588235,245.951724 227.470588,254.641379 227.470588,254.641379 C227.470588,254.641379 241.352941,233.786207 234.411765,228.572414 C225.735294,223.358621 213.588235,221.62069 213.588235,221.62069 Z" id="路径" fill="#CED6E0"></path>
                        <path d="M237.882353,289.4 L263.911765,282.448276 L283,298.089655 L283,487.524138 L67.8235294,487.524138 C67.8235294,487.524138 203.176471,299.827586 237.882353,289.4 Z" id="路径" fill="#F3705A"></path>
                        <path d="M218.794118,183.386207 L211.852941,216.406897 C211.852941,216.406897 215.323529,244.213793 229.205882,256.37931 L118.147059,339.8 C118.147059,339.8 111.205882,289.4 107.735294,280.710345 C107.735294,280.710345 88.6470588,282.448276 79.9705882,261.593103 C73.0294118,240.737931 66.0882353,228.572414 62.6176471,218.144828 C59.1470588,207.717241 52.2058824,183.386207 52.2058824,166.006897 C52.2058824,148.627586 47,145.151724 48.7352941,139.937931 C48.7352941,134.724138 48.7352941,124.296552 48.7352941,124.296552 C48.7352941,124.296552 50.4705882,87.8 53.9411765,80.8482759 C53.9411765,80.8482759 79.9705882,61.7310345 116.411765,59.9931034 C152.852941,58.2551724 196.235294,61.7310345 196.235294,61.7310345 L218.794118,183.386207 Z" id="路径" fill="#FFD9CC"></path>
                        <path d="M227.470588,254.641379 L90.3823529,364.131034 C90.3823529,364.131034 107.735294,284.186207 106,278.972414 C106,278.972414 86.9117647,280.710345 78.2352941,259.855172 C71.2941176,239 64.3529412,226.834483 60.8823529,216.406897 C57.4117647,207.717241 50.4705882,181.648276 50.4705882,164.268966 C50.4705882,146.889655 45.2647059,143.413793 47,138.2 C47,132.986207 47,122.558621 47,122.558621 C47,122.558621 48.7352941,86.062069 52.2058824,79.1103448 C52.2058824,79.1103448 78.2352941,59.9931034 114.676471,58.2551724 C151.117647,56.5172414 194.5,59.9931034 194.5,59.9931034 L218.794118,181.648276 L211.852941,214.668966 C210.117647,216.406897 215.323529,244.213793 227.470588,254.641379 Z" id="路径" fill="#FFD9CC"></path>
                        <path d="M47,124.296552 C47,124.296552 50.4705882,91.2758621 52.2058824,86.062069 C55.6764706,80.8482759 66.0882353,77.3724138 74.7647059,80.8482759 C83.4411765,84.3241379 123.352941,80.8482759 133.764706,77.3724138 C144.176471,73.8965517 171.941176,72.1586207 173.676471,87.8 C175.411765,103.441379 173.676471,108.655172 178.882353,117.344828 C185.823529,127.772414 192.764706,146.889655 192.764706,153.841379 L201.441176,155.57931 C201.441176,155.57931 204.911765,145.151724 208.382353,141.675862 C211.852941,138.2 218.794118,141.675862 218.794118,146.889655 C218.794118,152.103448 206.647059,202.503448 208.382353,214.668966 C208.382353,214.668966 211.852941,199.027586 213.588235,193.813793 C215.323529,188.6 224,122.558621 225.735294,106.917241 C227.470588,91.2758621 225.735294,56.5172414 208.382353,35.662069 C191.029412,14.8068966 166.735294,4.37931034 140.705882,0.903448276 C114.676471,-2.57241379 81.7058824,20.0206897 71.2941176,30.4482759 C60.8823529,40.8758621 43.5294118,53.0413793 48.7352941,82.5862069 C48.7352941,84.3241379 43.5294118,112.131034 47,124.296552 Z" id="路径" fill="#0D439B"></path>
                        <path d="M47,124.296552 C47,124.296552 50.4705882,91.2758621 52.2058824,86.062069 C55.6764706,80.8482759 66.0882353,77.3724138 74.7647059,80.8482759 C83.4411765,84.3241379 123.352941,80.8482759 133.764706,77.3724138 C144.176471,73.8965517 171.941176,72.1586207 173.676471,87.8 C175.411765,103.441379 173.676471,108.655172 178.882353,117.344828 C185.823529,127.772414 192.764706,146.889655 192.764706,153.841379 L201.441176,155.57931 C201.441176,155.57931 204.911765,145.151724 208.382353,141.675862 C211.852941,138.2 218.794118,141.675862 218.794118,146.889655 C218.794118,152.103448 206.647059,202.503448 208.382353,214.668966 C208.382353,214.668966 211.852941,199.027586 213.588235,193.813793 C215.323529,188.6 224,122.558621 225.735294,106.917241 C227.470588,91.2758621 225.735294,56.5172414 208.382353,35.662069 C191.029412,14.8068966 166.735294,4.37931034 140.705882,0.903448276 C114.676471,-2.57241379 81.7058824,20.0206897 71.2941176,30.4482759 C60.8823529,40.8758621 43.5294118,53.0413793 48.7352941,82.5862069 C48.7352941,84.3241379 43.5294118,112.131034 47,124.296552 Z" id="路径" fill="#0D439B"></path>
                        <ellipse id="椭圆形" fill="#FFD9CC" transform="translate(215.203274, 167.890292) rotate(18.463939) translate(-215.203274, -167.890292) " cx="215.203274" cy="167.890292" rx="17.3551688" ry="33.0148587"></ellipse>
                        <path d="M199.705882,212.931034 C196.235294,221.62069 182.352941,291.137931 99.0588235,329.372414 C97.3235294,313.731034 107.735294,284.186207 106,278.972414 C106,278.972414 130.294118,280.710345 154.588235,263.331034 C178.882353,247.689655 196.235294,223.358621 199.705882,212.931034 Z" id="路径" fill="#FBC5B3"></path>
                        <polyline id="路径" fill="#CED6E0" points="111.205882 303.303448 100.794118 351.965517 133.764706 305.041379 166.735294 327.634483 175.411765 379.772414 50.4705882 487.524138 31.3823529 487.524138 86.9117647 331.110345 111.205882 303.303448"></polyline>
                        <path d="M106,278.972414 C106,278.972414 109.470588,289.4 109.470588,296.351724 C111.205882,303.303448 111.205882,303.303448 111.205882,303.303448 C106,318.944828 99.0588235,329.372414 88.6470588,338.062069 L88.6470588,338.062069 C88.6470588,331.110345 90.3823529,325.896552 93.8529412,320.682759 C95.5882353,318.944828 95.5882353,317.206897 95.5882353,315.468966 L86.9117647,303.303448 L106,278.972414" id="路径" fill="#E8EAE9"></path>
                        <path d="M243.088235,261.593103 L165,360.655172 L133.764706,305.041379 C133.764706,305.041379 210.117647,252.903448 217.058824,247.689655 C222.264706,244.213793 230.941176,235.524138 230.941176,230.310345 C229.205882,226.834483 213.588235,223.358621 213.588235,223.358621 L213.588235,219.882759 C236.147059,223.358621 237.882353,232.048276 237.882353,232.048276 L243.088235,261.593103 Z" id="路径" fill="#E8EAE9"></path>
                        <g transform="translate(0.000000, 242.310345)" id="路径">
                            <path d="M106,41.8758621 L104.264706,38.4 C104.264706,38.4 92.1176471,38.4 78.2352941,48.8275862 C64.3529412,59.2551724 36.5882353,113.131034 31.3823529,128.772414 C27.9117647,144.413793 0.147058824,245.213793 0.147058824,245.213793 L31.3823529,245.213793 C31.3823529,245.213793 85.1764706,104.441379 88.6470588,95.7517241 C92.1176471,87.062069 99.0588235,66.2068966 99.0588235,66.2068966 L106,41.8758621 Z" fill="#F3705A"></path>
                            <path d="M237.882353,0.165517241 C237.882353,0.165517241 239.617647,8.85517241 230.941176,17.5448276 C222.264706,26.2344828 203.176471,43.6137931 194.5,54.0413793 C185.823529,64.4689655 147.647059,113.131034 126.823529,135.724138 C106,158.317241 50.4705882,246.951724 50.4705882,246.951724 L88.6470588,246.951724 L220.529412,116.606897 L213.588235,87.062069 L246.558824,80.1103448 C246.558824,80.1103448 260.441176,57.5172414 263.911765,43.6137931 C265.647059,40.137931 263.911765,36.662069 262.176471,33.1862069 C258.705882,27.9724138 253.5,21.0206897 251.764706,17.5448276 C248.294118,10.5931034 244.823529,1.90344828 237.882353,0.165517241" fill="#F05540"></path>
                        </g>
                    </g>
                    <g id="编组" transform="translate(157.000000, 132.000000)">
                        <path d="M62.52,504.843333 L62.52,501.37 L79.8866667,423.22 L62.52,357.226667 C62.52,357.226667 43.4166667,367.646667 39.9433333,386.75 C36.47,405.853333 34.7333333,416.273333 27.7866667,430.166667 C20.84,445.796667 15.63,454.48 15.63,461.426667 C15.63,468.373333 8.68333333,490.95 0,504.843333 L62.52,504.843333 Z" id="路径" fill="#1A2056"></path>
                        <path d="M62.52,504.843333 L62.52,501.37 L79.8866667,423.22 L62.52,357.226667 C62.52,357.226667 43.4166667,367.646667 39.9433333,386.75 C36.47,405.853333 34.7333333,416.273333 27.7866667,430.166667 C20.84,445.796667 15.63,454.48 15.63,461.426667 C15.63,468.373333 8.68333333,490.95 0,504.843333 L62.52,504.843333 Z" id="路径" fill="#1A2056"></path>
                        <path d="M60.7833333,504.843333 L173.666667,504.843333 C175.403333,461.426667 177.14,423.22 178.876667,411.063333 C184.086667,378.066667 196.243333,315.546667 196.243333,315.546667 C196.243333,315.546667 178.876667,319.02 159.773333,327.703333 C138.933333,336.386667 137.196667,339.86 118.093333,341.596667 C98.99,343.333333 64.2566667,357.226667 64.2566667,357.226667 C64.2566667,357.226667 39.9433333,381.54 64.2566667,501.37 L60.7833333,504.843333 Z" id="路径" fill="#0D439B"></path>
                        <path d="M338.65,504.843333 L503.633333,504.843333 C508.843333,482.266667 514.053333,457.953333 515.79,449.27 C519.263333,435.376667 527.946667,364.173333 508.843333,350.28 C491.476667,336.386667 449.796667,327.703333 422.01,336.386667 C394.223333,345.07 350.806667,414.536667 356.016667,452.743333 C356.016667,452.743333 342.123333,480.53 338.65,496.16 C340.386667,499.633333 338.65,501.37 338.65,504.843333 Z" id="路径" fill="#0D439B"></path>
                        <path d="M470.636667,504.843333 L357.753333,451.006667 C359.49,437.113333 382.066667,383.276667 427.22,355.49 C472.373333,327.703333 510.58,348.543333 510.58,348.543333 C510.58,348.543333 510.58,343.333333 493.213333,334.65 C475.846667,325.966667 415.063333,315.546667 402.906667,308.6 C392.486667,301.653333 368.173333,296.443333 368.173333,296.443333 C336.913333,320.756667 185.823333,490.95 185.823333,490.95 C185.823333,490.95 184.086667,492.686667 178.876667,504.843333 L470.636667,504.843333 Z" id="路径" fill="#1A2056"></path>
                        <ellipse id="椭圆形" fill="#0D439B" cx="324.756667" cy="256.5" rx="5.21" ry="13.8933333"></ellipse>
                        <g transform="translate(159.300000, 0.000000)" id="路径">
                            <path d="M9.15666667,122.776667 L7.42,152.3 C7.42,152.3 7.42,216.556667 10.8933333,232.186667 C14.3666667,247.816667 26.5233333,261.71 36.9433333,268.656667 C36.9433333,268.656667 43.89,289.496667 42.1533333,308.6 C40.4166667,327.703333 12.63,360.7 12.63,360.7 L62.9933333,383.276667 L175.876667,275.603333 L163.72,263.446667 C163.72,263.446667 163.72,230.45 165.456667,228.713333 C165.456667,228.713333 170.666667,197.453333 168.93,171.403333 C167.193333,145.353333 165.456667,119.303333 165.456667,119.303333 L149.826667,58.52 C149.826667,58.52 28.26,44.6266667 17.84,61.9933333 C9.15666667,79.36 5.68333333,103.673333 9.15666667,122.776667 Z" fill="#FFD9CC"></path>
                            <path d="M148.09,18.5766667 C116.83,-12.6833333 54.31,-0.526666667 31.7333333,27.26 C9.15666667,55.0466667 -1.26333333,63.73 0.473333333,96.7266667 C3.94666667,126.25 7.42,147.09 7.42,154.036667 L9.15666667,154.036667 C10.8933333,148.826667 14.3666667,131.46 12.63,115.83 C10.8933333,96.7266667 9.15666667,94.99 17.84,84.57 C26.5233333,74.15 38.68,70.6766667 50.8366667,74.15 C61.2566667,77.6233333 95.99,82.8333333 118.566667,77.6233333 C141.143333,70.6766667 155.036667,93.2533333 151.563333,103.673333 C148.09,112.356667 146.353333,119.303333 149.826667,121.04 C153.3,122.776667 167.193333,145.353333 165.456667,174.876667 L168.93,174.876667 C168.93,174.876667 163.72,155.773333 175.876667,143.616667 C175.876667,143.616667 179.35,121.04 179.35,98.4633333 C181.086667,72.4133333 179.35,49.8366667 148.09,18.5766667 Z" fill="#0D439B"></path>
                            <path d="M165.456667,235.66 C165.456667,235.66 158.51,258.236667 109.883333,280.813333 C61.2566667,301.653333 36.9433333,270.393333 36.9433333,270.393333 C36.9433333,270.393333 43.89,291.233333 42.1533333,310.336667 C40.4166667,324.23 24.7866667,346.806667 17.84,357.226667 L17.84,357.226667 C17.84,357.226667 17.84,357.226667 89.0433333,313.81 C161.983333,270.393333 165.456667,235.66 165.456667,235.66 Z" fill="#FBC5B3"></path>
                            <path d="M17.84,365.91 L10.8933333,466.636667 L99.4633333,400.643333 L94.2533333,334.65 L75.15,334.65 C75.15,334.65 64.73,346.806667 61.2566667,357.226667 C59.52,365.91 59.52,369.383333 59.52,369.383333 L57.7833333,358.963333 L43.89,334.65 L17.84,365.91 Z" fill="#CED6E0"></path>
                        </g>
                        <path d="M140.67,504.843333 L182.35,504.843333 C189.296667,468.373333 194.506667,433.64 197.98,416.273333 C203.19,374.593333 197.98,331.176667 194.506667,313.81 C194.506667,313.81 182.35,331.176667 171.93,339.86 C161.51,348.543333 138.933333,372.856667 138.933333,372.856667 L152.826667,390.223333 L114.62,412.8 C114.62,414.536667 128.513333,457.953333 140.67,504.843333 Z" id="路径" fill="#1A2056"></path>
                        <path d="M354.28,169.666667 C352.543333,187.033333 342.123333,199.19 333.44,199.19 C324.756667,197.453333 319.546667,183.56 323.02,166.193333 C326.493333,148.826667 335.176667,136.67 343.86,136.67 C350.806667,138.406667 356.016667,152.3 354.28,169.666667 Z" id="路径" fill="#FFD9CC"></path>
                        <path d="M154.563333,169.666667 C156.3,187.033333 166.72,199.19 175.403333,199.19 C184.086667,197.453333 189.296667,183.56 185.823333,166.193333 C184.086667,148.826667 173.666667,136.67 164.983333,136.67 C158.036667,138.406667 152.826667,152.3 154.563333,169.666667 Z" id="路径" fill="#FFD9CC"></path>
                        <path d="M324.756667,244.343333 C324.756667,244.343333 329.966667,249.553333 326.493333,256.5 C323.02,263.446667 317.81,273.866667 300.443333,286.023333 C283.076667,298.18 234.45,332.913333 234.45,332.913333 L244.87,402.38 L349.07,284.286667 L333.44,249.553333 C333.44,249.553333 329.966667,242.606667 324.756667,240.87 L324.756667,244.343333 Z" id="路径" fill="#F3F3F3"></path>
                        <path d="M194.506667,504.843333 C197.98,499.633333 201.453333,496.16 204.926667,492.686667 C236.186667,456.216667 295.233333,412.8 303.916667,405.853333 L298.706667,378.066667 L340.386667,365.91 C340.386667,365.91 362.963333,319.02 366.436667,308.6 C369.91,298.18 371.646667,296.443333 366.436667,286.023333 C361.226667,275.603333 352.543333,265.183333 350.806667,258.236667 C349.07,249.553333 333.44,249.553333 333.44,249.553333 C333.44,249.553333 343.86,263.446667 335.176667,277.34 C326.493333,291.233333 250.08,346.806667 211.873333,409.326667 C196.243333,435.376667 180.613333,471.846667 166.72,506.58 L194.506667,506.58 L194.506667,504.843333 Z" id="路径" fill="#0D439B"></path>
                        <path d="M199.716667,286.023333 C199.716667,286.023333 210.136667,341.596667 217.083333,357.226667 L203.19,348.543333 L199.716667,374.593333 C199.716667,374.593333 191.033333,352.016667 192.77,332.913333 C194.506667,313.81 196.243333,291.233333 199.716667,286.023333 Z" id="路径" fill="#F3F3F3"></path>
                        <path d="M62.52,504.843333 L62.52,501.37 L1.73666667,501.37 C1.73666667,503.106667 0,504.843333 0,504.843333 L62.52,504.843333 Z" id="路径" fill="#1A2056"></path>
                        <path d="M503.633333,504.843333 C508.843333,484.003333 512.316667,461.426667 515.79,451.006667 L357.753333,451.006667 C357.753333,451.006667 343.86,478.793333 340.386667,494.423333 C338.65,497.896667 338.65,501.37 336.913333,504.843333 L503.633333,504.843333 Z" id="路径" fill="#0D439B"></path>
                    </g>
                </g>
            </g>
        </g>
    </g>
</svg>